<?xml version="1.0" standalone="no"?>
<svg version="1.0" xmlns="http://www.w3.org/2000/svg"
 width="224.000000" height="184.000000" viewBox="0 0 224.000000 184.000000"
 preserveAspectRatio="xMidYMid meet">

<g transform="translate(0.000000,184.000000) scale(0.100000,-0.100000)"
fill="#000000" stroke="none">
<path d="M605 1618 c-3 -7 -108 -285 -235 -617 -126 -332 -230 -605 -230 -607
0 -2 38 -4 84 -4 l83 0 58 160 57 160 262 0 262 0 58 -160 59 -160 84 0 c77 0
84 2 78 18 -4 9 -111 288 -237 620 l-231 602 -74 0 c-50 0 -75 -4 -78 -12z
m185 -480 c55 -151 100 -278 100 -282 0 -3 -92 -6 -205 -6 -113 0 -205 4 -205
9 0 5 43 127 95 272 53 145 98 270 101 278 2 8 6 12 9 9 2 -2 49 -128 105
-280z"/>
<path d="M1612 1315 c-71 -20 -106 -39 -159 -88 -49 -46 -83 -103 -83 -142 0
-25 1 -25 80 -25 66 0 80 3 80 15 0 98 196 163 305 102 54 -30 85 -92 85 -169
l0 -58 -120 0 c-177 0 -283 -29 -365 -101 -114 -100 -114 -298 0 -398 63 -55
118 -74 215 -75 98 -1 156 17 226 70 l44 34 11 -45 11 -45 84 0 c46 0 84 2 84
5 0 2 -7 30 -15 62 -12 44 -15 120 -15 333 0 308 -6 346 -63 422 -22 30 -54
54 -101 78 -61 30 -79 35 -160 37 -58 2 -110 -3 -144 -12z m308 -577 l0 -102
-49 -47 c-78 -75 -190 -99 -278 -59 -55 25 -83 70 -83 135 0 122 89 171 318
174 l92 1 0 -102z"/>
</g>
</svg>
