<?xml version="1.0" standalone="no"?>
<svg version="1.0" xmlns="http://www.w3.org/2000/svg"
 width="254.000000pt" height="248.000000pt" viewBox="0 0 254.000000 248.000000"
 preserveAspectRatio="xMidYMid meet">

<g transform="translate(0.000000,248.000000) scale(0.100000,-0.100000)"
fill="#000000" stroke="none">
<path d="M545 2282 c-127 -44 -222 -128 -282 -249 l-38 -77 0 -716 0 -716 38
-78 c51 -101 122 -172 223 -223 l78 -38 716 0 716 0 78 38 c101 51 172 122
223 223 l38 78 0 716 0 716 -38 78 c-51 101 -122 172 -223 223 l-78 38 -700 2
c-645 2 -705 1 -751 -15z m1477 -119 c84 -40 141 -97 181 -181 l32 -67 0 -675
0 -675 -32 -67 c-40 -84 -97 -141 -181 -181 l-67 -32 -675 0 -675 0 -67 32
c-84 40 -141 97 -181 181 l-32 67 0 675 0 675 32 67 c48 103 124 168 238 204
31 10 186 13 700 11 l660 -2 67 -32z"/>
<path d="M1242 1838 c-9 -9 -12 -85 -12 -280 l0 -268 -268 0 c-286 0 -292 -1
-292 -50 0 -49 6 -50 292 -50 l268 0 0 -268 c0 -286 1 -292 50 -292 49 0 50 6
50 292 l0 268 268 0 c286 0 292 1 292 50 0 49 -6 50 -292 50 l-268 0 0 268 c0
286 -1 292 -50 292 -14 0 -31 -5 -38 -12z"/>
</g>
</svg>
