<?xml version="1.0" standalone="no"?>
<svg version="1.0" xmlns="http://www.w3.org/2000/svg"
 width="238.000000pt" height="252.000000pt" viewBox="0 0 238.000000 252.000000"
 preserveAspectRatio="xMidYMid meet">

<g transform="translate(0.000000,252.000000) scale(0.100000,-0.100000)"
fill="#000000" stroke="none">
<path d="M310 2330 c-20 -20 -20 -33 -20 -1050 0 -1025 0 -1030 21 -1051 23
-23 53 -19 85 15 11 11 191 202 398 424 208 221 381 402 386 402 5 0 178 -181
386 -402 207 -222 390 -415 405 -430 35 -33 52 -35 79 -8 20 20 20 33 20 1050
0 1017 0 1030 -20 1050 -20 20 -33 20 -870 20 -837 0 -850 0 -870 -20z m1650
-1007 l0 -918 -34 35 c-19 19 -186 197 -371 395 -185 198 -346 364 -356 369
-11 5 -27 5 -38 0 -11 -5 -173 -173 -361 -374 -188 -201 -355 -378 -371 -395
l-29 -30 0 918 0 917 780 0 780 0 0 -917z"/>
</g>
</svg>
