<?xml version="1.0" standalone="no"?>
<svg version="1.0" xmlns="http://www.w3.org/2000/svg"
 width="248.000000" height="228.000000" viewBox="0 0 248.000000 228.000000"
 preserveAspectRatio="xMidYMid meet">

<g transform="translate(0.000000,228.000000) scale(0.100000,-0.100000)"
fill="#000000" stroke="none">
<path d="M985 2066 c-104 -34 -186 -96 -240 -185 l-36 -58 -122 -5 c-92 -4
-136 -11 -179 -27 -76 -29 -159 -105 -195 -179 l-28 -57 0 -550 0 -550 34 -63
c41 -75 94 -125 170 -161 l56 -26 795 0 795 0 67 33 c77 38 130 92 167 171
l26 56 0 545 0 545 -25 50 c-13 28 -49 75 -80 106 -77 78 -137 99 -297 106
l-122 6 -36 58 c-45 73 -102 123 -185 163 l-65 31 -230 2 c-167 2 -241 -1
-270 -11z m515 -117 c79 -37 125 -81 161 -155 17 -35 37 -68 43 -73 6 -5 79
-11 161 -13 172 -4 205 -15 269 -90 65 -75 66 -87 66 -613 0 -546 0 -546 -80
-625 -82 -83 -49 -80 -880 -80 -831 0 -798 -3 -880 80 -80 79 -80 79 -80 625
0 526 1 538 66 613 64 75 96 86 276 92 86 3 158 7 161 10 2 3 15 30 29 60 32
71 69 114 126 147 78 46 121 53 322 50 176 -2 188 -3 240 -28z"/>
<path d="M1113 1485 c-247 -67 -408 -318 -363 -564 24 -130 90 -237 199 -318
92 -69 155 -88 296 -88 118 0 121 1 198 37 86 41 183 126 223 194 49 84 67
152 67 259 0 152 -46 258 -157 363 -120 113 -303 160 -463 117z m193 -96 c123
-23 238 -112 292 -227 24 -50 27 -69 27 -157 0 -93 -2 -105 -32 -165 -59 -120
-161 -198 -291 -222 -165 -31 -341 63 -416 222 -28 59 -31 74 -31 165 0 88 3
107 27 157 52 111 160 199 278 224 71 16 76 16 146 3z"/>
</g>
</svg>
