<?xml version="1.0" standalone="no"?>
<svg version="1.0" xmlns="http://www.w3.org/2000/svg" width="268.000000pt" height="242.000000pt" viewBox="0 0 268.000000 242.000000"
    preserveAspectRatio="xMidYMid meet">

    <g transform="translate(0.000000,242.000000) scale(0.100000,-0.100000)" fill="#000000" stroke="none">
        <path d="M1077 2315 c-285 -54 -542 -218 -697 -445 -294 -431 -240 -1004 130
-1368 313 -308 781 -393 1179 -215 l65 29 259 -62 c143 -34 268 -59 279 -56
45 11 41 40 -43 266 -43 118 -79 220 -79 227 0 6 20 52 45 102 144 295 146
629 6 922 -62 128 -113 202 -203 293 -148 150 -301 237 -513 292 -107 28 -319
35 -428 15z m417 -124 c182 -48 305 -119 442 -255 101 -102 153 -176 201 -287
62 -142 77 -217 77 -384 0 -203 -31 -324 -127 -489 l-39 -69 70 -191 c38 -105
69 -192 68 -192 0 -1 -102 22 -225 51 l-224 54 -49 -25 c-26 -13 -88 -38 -136
-54 -523 -173 -1074 132 -1224 678 -31 111 -31 353 0 464 102 373 391 642 766
714 100 19 298 12 400 -15z" />
    </g>
</svg>
