<svg xmlns="http://www.w3.org/2000/svg" xmlns:xlink="http://www.w3.org/1999/xlink" version="1.1" x="0px" y="0px" viewBox="-159 267.8 291.5 324"
    style="enable-background:new -159 267.8 291.5 259.2;" xml:space="preserve"><style type="text/css">
	.st0{fill:none;stroke:#000000;stroke-width:9;stroke-miterlimit:10;}
</style>
    <path class="st0"
        d="M65.8,477.9l-31.8-11c-3.2-1.1-6.8-0.9-9.8,0.8c-13.9,7.5-30.2,11.1-47.5,9.2c-37.1-4.2-66.9-34.3-70.6-71.4  C-99,355.1-57.4,313-7.3,317.1c36.5,3,66.8,31.1,72.5,67.2c2.7,16.9-0.1,33.1-6.6,47c-1.3,2.7-1.7,5.8-0.8,8.7L68,475.9  C68.3,477.2,67,478.3,65.8,477.9z" />
    <text x="-159" y="542" fill="#000000" font-size="5px" font-weight="bold"
        font-family="'Helvetica Neue', Helvetica, Arial-Unicode, Arial, Sans-serif">Created by Sofia Espino-Yaeger</text>
    <text x="-159" y="547" fill="#000000" font-size="5px" font-weight="bold"
        font-family="'Helvetica Neue', Helvetica, Arial-Unicode, Arial, Sans-serif">from the Noun Project</text></svg>