<?xml version="1.0" standalone="no"?>
<svg version="1.0" xmlns="http://www.w3.org/2000/svg" width="52.000000pt" height="52.000000pt" viewBox="0 0 52.000000 52.000000"
    preserveAspectRatio="xMidYMid meet">

    <g transform="translate(0.000000,52.000000) scale(0.100000,-0.100000)" fill="#000000" stroke="none">
        <path d="M197 510 c-90 -23 -159 -85 -182 -164 -43 -145 78 -286 246 -286 29
0 61 -8 81 -19 71 -42 178 -51 178 -15 0 8 -16 30 -35 50 -19 19 -35 39 -35
45 0 5 12 27 26 49 97 146 -2 324 -191 344 -27 3 -67 1 -88 -4z m171 -62 c108
-51 140 -179 67 -266 -30 -36 -32 -71 -4 -106 l20 -26 -23 0 c-13 0 -43 11
-67 25 -29 17 -58 25 -90 25 -74 0 -122 19 -167 64 -46 45 -69 107 -58 153 31
132 186 195 322 131z" />
    </g>
</svg>
