<?xml version="1.0" standalone="no"?>
<svg version="1.0" xmlns="http://www.w3.org/2000/svg" width="216.000000" height="202.000000" viewBox="0 0 216.000000 202.000000"
    preserveAspectRatio="xMidYMid meet">

    <g transform="translate(0.000000,202.000000) scale(0.100000,-0.100000)" fill="#000000" stroke="none">
        <path d="M355 1841 c-49 -22 -91 -69 -105 -119 -7 -23 -10 -127 -8 -281 3
-219 5 -245 20 -255 13 -8 23 -8 35 0 16 10 19 37 23 265 5 267 9 286 53 311
15 9 97 14 276 18 228 4 255 7 265 23 8 12 8 22 0 35 -10 15 -36 17 -265 19
-229 3 -258 1 -294 -16z" />
        <path d="M1252 1848 c-16 -16 -15 -43 1 -56 8 -7 105 -12 265 -14 l252 -3 32
-33 33 -32 5 -257 c4 -230 7 -257 23 -267 12 -8 22 -8 35 0 15 10 17 35 17
277 l0 265 -30 43 c-16 23 -50 53 -74 66 -43 22 -52 23 -296 23 -182 0 -254
-3 -263 -12z" />
        <path d="M765 1436 c-59 -27 -77 -46 -104 -106 -19 -42 -21 -65 -21 -310 0
-257 1 -266 24 -315 27 -59 46 -77 106 -104 42 -19 65 -21 310 -21 245 0 268
2 310 21 60 27 79 45 106 104 23 49 24 58 24 315 0 245 -2 268 -21 310 -27 60
-45 79 -104 106 -49 23 -58 24 -315 24 -257 0 -266 -1 -315 -24z m604 -74 c67
-36 71 -56 71 -342 0 -376 16 -360 -360 -360 -376 0 -360 -16 -360 360 0 228
2 259 18 289 36 67 56 71 342 71 228 0 259 -2 289 -18z" />
        <path d="M252 848 c-9 -9 -12 -81 -12 -263 0 -244 1 -253 23 -296 13 -24 43
-57 66 -74 l43 -30 265 0 c242 0 267 2 277 17 8 13 8 23 0 35 -10 16 -37 19
-267 23 l-257 5 -32 33 -33 32 -3 252 c-2 160 -7 257 -14 265 -13 16 -40 17
-56 1z" />
        <path d="M1852 848 c-9 -9 -12 -79 -12 -252 0 -221 -2 -244 -20 -273 -33 -56
-43 -58 -314 -63 -223 -4 -250 -7 -260 -22 -8 -13 -8 -23 0 -35 10 -16 35 -18
277 -18 l265 0 43 30 c23 17 53 50 66 74 22 43 23 52 23 296 0 258 -2 275 -40
275 -9 0 -21 -5 -28 -12z" />
    </g>
</svg>
