<?xml version="1.0" standalone="no"?>
<svg version="1.0" xmlns="http://www.w3.org/2000/svg"
 width="248.000000" height="238.000000" viewBox="0 0 248.000000 238.000000"
 preserveAspectRatio="xMidYMid meet">

<g transform="translate(0.000000,238.000000) scale(0.100000,-0.100000)"
fill="#000000" stroke="none">
<path d="M2051 2231 c-7 -12 -14 -50 -18 -85 l-6 -64 -59 -6 c-144 -17 -145
-51 -3 -65 58 -6 60 -7 63 -36 7 -72 24 -135 37 -135 13 0 30 63 37 135 3 29
5 30 63 36 143 14 141 48 -4 65 l-61 7 0 36 c-1 45 -15 110 -28 123 -7 7 -14
3 -21 -11z"/>
<path d="M1012 2206 c-228 -44 -408 -137 -566 -292 -314 -310 -401 -786 -216
-1182 137 -293 388 -501 700 -581 109 -28 288 -38 401 -22 235 35 447 146 614
322 85 89 131 158 190 281 74 154 89 223 89 433 1 158 -2 190 -22 264 -34 125
-61 175 -95 179 -33 4 -57 -13 -57 -39 0 -10 13 -58 30 -106 85 -254 53 -541
-86 -776 -67 -112 -221 -266 -327 -326 -180 -101 -274 -126 -482 -126 -187 0
-248 13 -394 81 -151 71 -283 179 -378 310 -52 71 -118 216 -144 314 -33 122
-33 338 0 460 45 169 120 301 245 428 174 178 374 268 624 279 132 6 237 -6
330 -38 73 -25 98 -24 117 5 13 20 14 29 5 46 -37 69 -390 122 -578 86z"/>
<path d="M1696 1921 c-3 -5 -11 -43 -17 -85 l-11 -76 -37 0 c-46 -1 -110 -15
-124 -29 -14 -14 30 -30 103 -38 l58 -6 11 -74 c6 -42 14 -79 17 -84 17 -29
37 16 49 112 l6 46 58 6 c74 8 118 24 104 38 -14 14 -78 28 -125 29 -36 0 -37
1 -43 48 -12 97 -32 142 -49 113z"/>
<path d="M773 1390 c-91 -55 -47 -200 61 -203 68 -2 116 47 116 118 0 29 -8
45 -34 71 -40 40 -92 46 -143 14z"/>
<path d="M1424 1376 c-26 -26 -34 -42 -34 -70 0 -73 47 -121 116 -119 108 3
152 148 61 203 -51 32 -103 26 -143 -14z"/>
<path d="M786 874 c-9 -8 -16 -26 -16 -39 0 -46 129 -133 249 -169 71 -21 211
-21 282 0 125 37 249 123 249 173 0 60 -52 68 -113 16 -156 -133 -398 -133
-554 0 -45 38 -73 44 -97 19z"/>
</g>
</svg>
