<?xml version="1.0" encoding="UTF-8"?>
<svg xmlns="http://www.w3.org/2000/svg" xmlns:xlink="http://www.w3.org/1999/xlink" viewBox="0 0 48 48" width="48px" height="48px">
<g id="surface16532256">
<path style=" stroke:none;fill-rule:nonzero;fill:rgb(0%,0%,0%);fill-opacity:1;" d="M 24 0 C 10.746094 0 0 10.746094 0 24 C 0 36.03125 8.863281 45.96875 20.410156 47.703125 L 20.410156 30.359375 L 14.472656 30.359375 L 14.472656 24.050781 L 20.410156 24.050781 L 20.410156 19.855469 C 20.410156 12.902344 23.796875 9.855469 29.574219 9.855469 C 32.339844 9.855469 33.804688 10.058594 34.496094 10.152344 L 34.496094 15.65625 L 30.554688 15.65625 C 28.105469 15.65625 27.246094 17.984375 27.246094 20.605469 L 27.246094 24.050781 L 34.433594 24.050781 L 33.460938 30.359375 L 27.246094 30.359375 L 27.246094 47.753906 C 38.960938 46.164062 48 36.148438 48 24 C 48 10.746094 37.253906 0 24 0 Z M 24 0 "/>
</g>
</svg>
