<?xml version="1.0" standalone="no"?>
<svg version="1.0" xmlns="http://www.w3.org/2000/svg"
 width="268.000000" height="248.000000" viewBox="0 0 268.000000 248.000000"
 preserveAspectRatio="xMidYMid meet">

<g transform="translate(0.000000,248.000000) scale(0.100000,-0.100000)"
fill="#000000" stroke="none">
<path d="M302 2298 c-17 -17 -17 -2059 0 -2076 17 -17 2059 -17 2076 0 17 17
17 2059 0 2076 -17 17 -2059 17 -2076 0z m658 -373 l0 -285 -282 2 -283 3 -3
283 -2 282 285 0 285 0 0 -285z m660 0 l0 -285 -275 0 -275 0 0 285 0 285 275
0 275 0 0 -285z m668 3 l-3 -283 -277 -3 -278 -2 0 285 0 285 280 0 280 0 -2
-282z m-1328 -638 l0 -250 -285 0 -285 0 0 250 0 250 285 0 285 0 0 -250z
m660 0 l0 -250 -275 0 -275 0 0 250 0 250 275 0 275 0 0 -250z m670 0 l0 -250
-280 0 -280 0 0 250 0 250 280 0 280 0 0 -250z m-1330 -670 l0 -310 -285 0
-285 0 0 310 0 310 285 0 285 0 0 -310z m660 0 l0 -310 -275 0 -275 0 0 310 0
310 275 0 275 0 0 -310z m670 0 l0 -310 -280 0 -280 0 0 310 0 310 280 0 280
0 0 -310z"/>
</g>
</svg>
