<?xml version="1.0" standalone="no"?>
<svg version="1.0" xmlns="http://www.w3.org/2000/svg"
 width="250.000000" height="246.000000" viewBox="0 0 250.000000 246.000000"
 preserveAspectRatio="xMidYMid meet">

<g transform="translate(0.000000,246.000000) scale(0.100000,-0.100000)"
fill="#000000" stroke="none">
<path d="M1085 2349 c-193 -28 -399 -119 -550 -242 -299 -244 -458 -640 -405
-1012 29 -203 117 -405 243 -560 224 -274 576 -432 922 -412 580 34 1028 482
1062 1062 11 190 -27 369 -117 550 -214 432 -686 682 -1155 614z m410 -128
c44 -12 122 -42 174 -67 222 -106 379 -263 485 -485 75 -155 90 -224 90 -429
0 -149 -3 -187 -22 -254 -104 -376 -403 -658 -784 -740 l-28 -6 0 289 c0 250
-2 292 -16 305 -23 23 -285 23 -308 0 -14 -13 -16 -55 -16 -305 l0 -289 -27 6
c-382 82 -681 364 -785 740 -19 67 -22 105 -22 254 0 149 3 187 22 254 105
378 407 662 788 741 103 21 345 14 449 -14z"/>
<path d="M1185 2038 c-92 -51 -108 -153 -34 -224 27 -25 38 -29 90 -29 57 0
63 2 94 37 44 47 53 95 29 145 -34 69 -121 103 -179 71z"/>
<path d="M683 1785 c-94 -40 -96 -192 -4 -240 90 -46 201 17 201 115 0 102
-102 167 -197 125z"/>
<path d="M1703 1780 c-86 -52 -82 -189 6 -235 97 -49 212 30 198 136 -13 97
-121 150 -204 99z"/>
<path d="M1070 1195 l0 -275 170 0 170 0 0 275 0 275 -170 0 -170 0 0 -275z"/>
<path d="M1845 1303 c-60 -16 -95 -67 -95 -135 0 -66 35 -109 103 -128 31 -9
45 -8 81 9 51 22 76 55 82 108 11 90 -83 170 -171 146z"/>
<path d="M541 1282 c-65 -35 -88 -115 -53 -181 48 -89 180 -94 232 -8 73 119
-56 255 -179 189z"/>
</g>
</svg>
