<?xml version="1.0" standalone="no"?>
<svg version="1.0" xmlns="http://www.w3.org/2000/svg"
 width="258.000000pt" height="232.000000pt" viewBox="0 0 258.000000 232.000000"
 preserveAspectRatio="xMidYMid meet">

<g transform="translate(0.000000,232.000000) scale(0.100000,-0.100000)"
fill="#000000" stroke="none">
<path d="M1407 2048 c-13 -18 -44 -63 -70 -99 -117 -167 -187 -223 -582 -464
-159 -97 -320 -197 -356 -221 -168 -111 -222 -243 -157 -385 45 -99 123 -143
246 -138 l67 3 95 -184 95 -185 164 -3 c174 -3 191 1 191 44 0 12 -43 111 -95
220 -52 108 -95 200 -95 204 0 6 92 29 210 52 127 24 528 9 726 -28 41 -7 64
16 64 64 0 56 -53 301 -95 437 -62 204 -157 418 -268 605 -72 122 -97 136
-140 78z m102 -220 c109 -204 209 -475 262 -713 15 -71 27 -131 25 -133 -2 -2
-44 3 -92 10 -123 17 -538 17 -629 -1 -112 -21 -223 -50 -322 -84 -51 -17 -94
-29 -96 -26 -8 11 -137 316 -137 324 0 12 16 22 345 223 345 210 422 272 544
435 24 31 45 57 47 57 1 0 25 -42 53 -92z m-1025 -815 c32 -76 61 -144 63
-150 4 -10 -14 -13 -72 -13 -73 0 -78 2 -106 31 -35 38 -54 96 -45 142 6 31
77 127 95 127 4 0 33 -62 65 -137z m396 -363 c44 -88 80 -164 80 -170 0 -6
-31 -10 -75 -10 l-76 0 -69 147 c-39 80 -69 148 -67 150 5 4 109 41 119 42 5
1 44 -71 88 -159z"/>
<path d="M1898 1888 c-96 -100 -106 -126 -62 -155 33 -21 43 -15 147 93 78 81
93 114 65 142 -30 30 -62 14 -150 -80z"/>
<path d="M2100 1628 c-68 -16 -130 -34 -137 -40 -16 -13 -17 -60 -1 -76 17
-17 48 -15 187 17 150 35 181 61 131 111 -25 25 -27 25 -180 -12z"/>
<path d="M2036 1284 c-20 -20 -21 -58 -1 -74 16 -13 199 -50 252 -50 24 0 37
7 49 25 15 23 15 27 0 50 -9 14 -20 25 -25 25 -4 0 -57 9 -117 20 -132 24
-138 24 -158 4z"/>
</g>
</svg>
