<?xml version="1.0" standalone="no"?>
<svg version="1.0" xmlns="http://www.w3.org/2000/svg" width="252.000000" height="212.000000" viewBox="0 0 252.000000 212.000000"
    preserveAspectRatio="xMidYMid meet">

    <g transform="translate(0.000000,212.000000) scale(0.100000,-0.100000)" fill="#000000" stroke="none">
        <path d="M616 1985 c-157 -43 -276 -144 -350 -297 -98 -204 -101 -423 -7 -623
52 -111 106 -177 278 -345 298 -292 670 -600 724 -600 71 0 774 617 916 804
170 225 199 511 77 764 -98 204 -272 312 -499 312 -178 0 -329 -54 -435 -156
l-60 -57 -60 57 c-69 66 -173 119 -275 141 -86 18 -243 18 -309 0z m312 -111
c122 -32 222 -105 268 -196 43 -85 85 -85 128 0 61 118 181 189 362 213 254
34 452 -108 520 -372 12 -48 15 -92 12 -179 -6 -130 -28 -203 -93 -307 -46
-72 -343 -369 -525 -524 -147 -125 -313 -257 -334 -265 -44 -17 -716 582 -847
755 -152 203 -162 499 -24 707 58 88 168 161 277 184 54 11 182 3 256 -16z" />
    </g>
</svg>
