<?xml version="1.0" standalone="no"?>
<svg version="1.0" xmlns="http://www.w3.org/2000/svg"
 width="258.000000pt" height="254.000000pt" viewBox="0 0 258.000000 254.000000"
 preserveAspectRatio="xMidYMid meet">

<g transform="translate(0.000000,254.000000) scale(0.100000,-0.100000)"
fill="#000000" stroke="none">
<path d="M1018 2409 c-11 -6 -18 -22 -18 -39 0 -24 20 -52 100 -137 l99 -108
-247 -5 c-228 -5 -251 -7 -305 -29 -125 -50 -231 -159 -280 -288 -22 -57 -22
-70 -25 -608 -3 -616 -1 -642 64 -751 72 -123 208 -213 349 -234 91 -13 999
-13 1090 0 141 21 277 111 349 234 65 109 67 135 64 751 -3 538 -3 551 -25
608 -49 129 -155 238 -280 288 -54 22 -77 24 -305 29 l-247 5 99 108 c80 85
100 113 100 137 0 19 -7 33 -19 40 -41 21 -34 27 -229 -180 l-52 -55 -52 55
c-193 205 -190 203 -230 179z m914 -426 c82 -39 145 -100 184 -179 l29 -59 3
-566 c3 -552 2 -568 -18 -622 -42 -113 -125 -191 -239 -227 -60 -19 -91 -20
-591 -20 -500 0 -531 1 -591 20 -114 36 -197 114 -239 227 -20 54 -21 70 -18
622 l3 566 29 59 c51 103 153 184 260 206 22 4 284 8 581 7 l540 -2 67 -32z"/>
<path d="M1009 1277 c-130 -45 -244 -88 -253 -96 -30 -25 -10 -91 27 -91 7 0
100 31 207 68 l195 69 5 -115 c4 -98 8 -116 24 -128 11 -8 25 -14 30 -14 6 0
125 44 265 98 168 64 258 104 267 117 18 28 -2 69 -36 73 -14 1 -117 -33 -230
-77 l-205 -79 -5 115 c-4 99 -8 117 -24 129 -11 8 -22 14 -25 13 -3 0 -112
-37 -242 -82z"/>
</g>
</svg>
