<?xml version="1.0" standalone="no"?>
<svg version="1.0" xmlns="http://www.w3.org/2000/svg" width="178.000000pt" height="176.000000pt" viewBox="0 0 178.000000 176.000000"
    preserveAspectRatio="xMidYMid meet">

    <g transform="translate(0.000000,176.000000) scale(0.100000,-0.100000)" fill="#000000" stroke="none">
        <path d="M722 1594 c-35 -7 -100 -31 -145 -52 -164 -78 -275 -185 -346 -335
-49 -104 -64 -167 -64 -281 0 -171 59 -317 181 -447 l72 -77 0 -136 c0 -75 3
-136 6 -136 4 0 67 31 140 69 129 67 135 69 171 58 21 -6 97 -11 168 -12 109
0 142 4 205 24 288 89 490 317 519 586 15 134 -20 294 -91 413 -43 72 -159
188 -231 231 -73 43 -167 81 -242 97 -77 17 -262 16 -343 -2z m332 -59 c94
-20 239 -92 307 -154 158 -142 238 -366 200 -563 -43 -223 -235 -422 -471
-487 -85 -24 -243 -28 -344 -10 l-61 12 -95 -49 c-52 -27 -98 -50 -102 -52 -5
-2 -8 42 -8 99 l0 102 -75 78 c-118 124 -175 258 -175 416 0 99 15 164 60 258
82 172 258 307 454 350 82 18 226 18 310 0z" />
        <path d="M619 912 c-108 -114 -195 -208 -194 -210 1 -2 79 40 173 93 93 52
174 95 180 95 6 0 52 -45 103 -100 l93 -100 96 103 c170 181 302 327 296 327
-3 0 -72 -38 -153 -84 -82 -46 -158 -89 -171 -95 -22 -12 -29 -6 -115 83 -51
53 -96 96 -102 96 -5 0 -98 -93 -206 -208z" />
    </g>
</svg>
