<?xml version="1.0" standalone="no"?>
<svg version="1.0" xmlns="http://www.w3.org/2000/svg" width="608.000000" height="588.000000" viewBox="0 0 608.000000 588.000000"
    preserveAspectRatio="xMidYMid meet">

    <g transform="translate(0.000000,588.000000) scale(0.100000,-0.100000)" fill="#000000" stroke="none">
        <path d="M1170 5760 c-221 -7 -286 -19 -418 -81 -220 -102 -391 -290 -466
-514 -52 -151 -50 -100 -50 -1670 0 -1547 -2 -1489 46 -1630 97 -284 345 -512
637 -584 84 -21 97 -21 1575 -21 1201 1 1503 3 1551 14 320 71 570 306 672
633 l28 88 0 1505 0 1505 -24 85 c-76 270 -248 476 -493 589 -131 61 -188 72
-418 81 -232 10 -2342 10 -2640 0z" />
        <path d="M5347 4553 c-4 -3 -7 -700 -7 -1547 -1 -848 -5 -1611 -10 -1696 -6
-121 -14 -172 -34 -236 -69 -217 -236 -353 -469 -381 -34 -4 -812 -7 -1729 -8
-916 0 -1670 -4 -1674 -8 -23 -23 126 -222 228 -305 77 -64 190 -123 283 -150
166 -48 140 -47 1540 -46 1446 2 1637 7 1770 49 122 37 226 103 331 209 95 96
142 166 188 281 57 142 56 110 56 1721 0 1000 -3 1500 -11 1540 -42 234 -203
460 -400 560 -54 27 -53 27 -62 17z" />
    </g>
</svg>
