<?xml version="1.0" standalone="no"?>
<svg version="1.0" xmlns="http://www.w3.org/2000/svg"
 width="244.000000" height="244.000000" viewBox="0 0 244.000000 244.000000"
 preserveAspectRatio="xMidYMid meet">

<g transform="translate(0.000000,244.000000) scale(0.100000,-0.100000)"
fill="#000000" stroke="none">
<path d="M1044 2255 c-238 -36 -420 -130 -595 -304 -186 -187 -280 -381 -310
-646 -27 -230 34 -482 166 -685 63 -96 219 -252 315 -315 355 -231 808 -229
1170 6 84 55 244 215 299 299 235 362 237 815 6 1170 -63 96 -219 252 -315
315 -218 142 -483 200 -736 160z m305 -105 c202 -33 374 -123 526 -275 190
-190 285 -415 285 -675 0 -160 -37 -310 -112 -450 -40 -76 -136 -206 -145
-197 -3 3 -17 41 -32 84 -63 182 -208 325 -376 369 -35 10 -122 14 -295 14
-265 0 -303 -5 -399 -55 -67 -33 -158 -119 -208 -194 -20 -30 -49 -90 -64
-134 -15 -43 -29 -81 -32 -84 -9 -9 -105 121 -145 197 -125 236 -147 518 -58
769 94 269 318 492 587 587 142 50 323 67 468 44z m195 -1274 c121 -59 224
-204 249 -350 l12 -69 -32 -26 c-79 -66 -217 -132 -343 -165 -90 -24 -268 -32
-370 -17 -147 22 -322 94 -424 174 -38 30 -38 31 -32 84 19 164 139 327 283
383 44 18 73 19 323 17 l275 -2 59 -29z"/>
<path d="M1089 1936 c-119 -33 -227 -126 -281 -243 -87 -186 -19 -422 154
-534 79 -50 143 -69 238 -69 97 0 162 19 240 72 221 147 254 457 71 651 -109
115 -274 163 -422 123z m246 -125 c249 -117 253 -462 8 -583 -170 -84 -366
-10 -444 167 -28 64 -30 161 -5 235 14 41 35 71 80 116 73 72 120 92 226 93
63 1 85 -4 135 -28z"/>
</g>
</svg>
