<?xml version="1.0" standalone="no"?>
<svg version="1.0" xmlns="http://www.w3.org/2000/svg"
 width="290.000000" height="226.000000" viewBox="0 0 290.000000 226.000000"
 preserveAspectRatio="xMidYMid meet">

<g transform="translate(0.000000,226.000000) scale(0.100000,-0.100000)"
fill="#000000" stroke="none">
<path d="M1055 2111 c-70 -33 -99 -63 -139 -148 l-29 -61 -246 -4 c-232 -3
-249 -4 -296 -26 -63 -29 -119 -83 -153 -147 l-27 -50 0 -635 0 -635 24 -49
c31 -63 84 -116 147 -147 l49 -24 1055 0 1055 0 47 23 c60 30 120 90 150 150
l23 47 0 635 0 635 -27 50 c-34 64 -90 118 -153 147 -47 22 -64 23 -296 26
l-246 4 -29 61 c-40 85 -69 115 -139 148 l-60 29 -325 0 -325 0 -60 -29z m705
-144 c16 -8 42 -44 70 -99 73 -140 41 -128 344 -128 252 0 263 -1 306 -22 84
-44 81 -12 78 -688 l-3 -595 -24 -34 c-46 -64 9 -61 -1093 -61 -935 0 -1005 1
-1037 18 -19 9 -44 30 -55 45 -21 28 -21 40 -24 625 -3 679 -6 646 78 690 43
21 54 22 306 22 303 0 271 -12 344 128 28 55 54 91 70 99 18 9 106 13 320 13
214 0 302 -4 320 -13z"/>
<path d="M1348 1650 c-194 -34 -351 -160 -424 -341 -45 -109 -25 -179 51 -179
46 0 69 24 89 92 52 181 245 301 431 267 65 -12 147 -48 183 -82 l22 -21 -52
-53 c-28 -29 -50 -54 -47 -56 10 -8 433 -117 437 -113 5 5 -106 427 -114 435
-2 3 -28 -19 -58 -48 -46 -45 -54 -50 -65 -37 -26 31 -126 90 -190 112 -75 26
-194 37 -263 24z"/>
<path d="M1853 1008 c-11 -13 -28 -45 -37 -72 -48 -145 -158 -241 -308 -269
-100 -18 -220 15 -313 88 -18 15 -17 17 35 70 37 38 49 56 39 59 -52 18 -425
114 -428 110 -2 -2 22 -103 55 -224 l58 -220 53 52 c39 39 57 50 66 43 118
-89 216 -131 328 -141 215 -21 438 105 534 299 49 99 57 168 25 202 -30 32
-79 33 -107 3z"/>
</g>
</svg>
