<?xml version="1.0" standalone="no"?>
<svg version="1.0" xmlns="http://www.w3.org/2000/svg"
 width="512.000000" height="512.000000" viewBox="0 0 512.000000 512.000000"
 preserveAspectRatio="xMidYMid meet">

<g transform="translate(0.000000,512.000000) scale(0.100000,-0.100000)"
fill="#000000" stroke="none">
<path d="M514 4520 c-36 -14 -64 -59 -64 -103 0 -48 -68 21 862 -881 l677
-657 10 -52 c6 -29 103 -527 216 -1107 145 -742 211 -1062 224 -1080 46 -65
131 -61 175 8 25 39 2004 3644 2043 3722 20 39 21 50 12 83 -7 26 -21 44 -42
57 -31 20 -68 20 -2062 19 -1117 0 -2040 -4 -2051 -9z m3661 -209 c-22 -19
-2068 -1242 -2075 -1239 -9 4 -1280 1239 -1280 1244 0 2 757 4 1682 4 939 0
1678 -4 1673 -9z m72 -249 c-17 -33 -401 -732 -852 -1555 -451 -822 -821
-1494 -823 -1493 -3 4 -362 1842 -362 1858 0 11 2041 1246 2062 1248 4 0 -7
-26 -25 -58z"/>
</g>
</svg>
