<?xml version="1.0" standalone="no"?>
<svg version="1.0" xmlns="http://www.w3.org/2000/svg"
 width="252.000000pt" height="240.000000pt" viewBox="0 0 252.000000 240.000000"
 preserveAspectRatio="xMidYMid meet">

<g transform="translate(0.000000,240.000000) scale(0.100000,-0.100000)"
fill="#000000" stroke="none">
<path d="M1268 2270 c-11 -6 -18 -23 -18 -40 0 -41 32 -60 100 -60 113 0 251
-36 375 -98 98 -48 149 -85 234 -166 145 -140 234 -301 276 -499 17 -80 20
-268 4 -353 -25 -145 -101 -311 -194 -428 -57 -72 -62 -84 -45 -117 18 -33 63
-24 102 19 96 107 183 272 225 430 24 86 27 116 27 262 0 146 -3 176 -27 262
-51 193 -147 356 -290 495 -141 137 -292 223 -475 269 -110 28 -267 41 -294
24z"/>
<path d="M543 1963 c-61 -63 -123 -146 -123 -165 0 -21 33 -48 58 -48 12 0 32
12 45 27 12 15 48 55 80 90 61 67 70 98 39 126 -29 27 -50 20 -99 -30z"/>
<path d="M992 1579 c-75 -37 -123 -121 -124 -218 -1 -69 15 -121 53 -178 32
-45 169 -175 296 -278 l83 -67 97 78 c128 103 286 260 306 306 79 171 -7 363
-167 376 -80 6 -156 -19 -200 -68 l-36 -40 -36 40 c-62 68 -187 91 -272 49z"/>
<path d="M296 1548 c-25 -41 -48 -170 -54 -300 -5 -146 5 -178 56 -178 47 0
52 14 52 149 1 74 7 153 16 191 27 119 27 125 9 143 -24 24 -62 21 -79 -5z"/>
<path d="M324 865 c-16 -24 -15 -28 19 -99 49 -103 108 -188 191 -274 88 -91
100 -98 132 -77 42 27 32 62 -37 130 -75 74 -135 157 -184 255 -21 41 -43 78
-49 82 -23 15 -56 8 -72 -17z"/>
<path d="M1635 330 c-119 -48 -219 -63 -374 -57 -107 4 -155 10 -224 31 -94
28 -120 25 -132 -14 -17 -53 63 -91 255 -121 160 -25 402 8 552 74 66 29 84
63 53 97 -23 26 -45 24 -130 -10z"/>
</g>
</svg>
