<?xml version="1.0" standalone="no"?>
<svg version="1.0" xmlns="http://www.w3.org/2000/svg"
 width="254.000000" height="232.000000" viewBox="0 0 254.000000 232.000000"
 preserveAspectRatio="xMidYMid meet">

<g transform="translate(0.000000,232.000000) scale(0.100000,-0.100000)"
fill="#000000" stroke="none">
<path d="M1255 2201 c-16 -4 -40 -13 -51 -19 -33 -18 -84 -81 -91 -112 -5 -26
-13 -31 -77 -50 -39 -12 -106 -40 -150 -61 l-79 -40 -43 17 c-65 25 -144 16
-192 -23 -78 -63 -104 -164 -64 -243 18 -35 18 -35 -12 -90 -17 -30 -45 -97
-62 -149 -30 -90 -33 -94 -69 -107 -78 -27 -128 -98 -128 -184 0 -86 50 -157
129 -185 37 -12 41 -18 66 -92 15 -43 43 -108 62 -145 l35 -66 -20 -38 c-35
-70 -21 -161 35 -222 55 -61 157 -80 231 -42 l39 20 66 -34 c66 -34 178 -76
205 -76 8 0 19 -17 25 -41 17 -61 72 -116 136 -135 49 -14 59 -14 108 0 64 19
119 74 136 135 6 24 17 41 25 41 27 0 139 42 205 76 l66 34 39 -20 c74 -38
176 -19 231 42 56 61 70 152 35 222 l-20 37 36 69 c19 38 47 104 61 146 25 71
30 77 66 89 79 28 129 99 129 185 0 86 -50 157 -128 184 -36 13 -39 17 -69
107 -17 52 -45 119 -62 149 -30 55 -30 55 -12 90 40 79 14 180 -64 243 -48 39
-127 48 -192 23 l-43 -17 -79 40 c-44 21 -111 49 -150 61 -64 19 -72 24 -77
50 -7 33 -59 95 -96 114 -35 18 -99 26 -136 17z m229 -271 c528 -123 786 -723
511 -1192 -104 -178 -288 -319 -490 -374 -91 -25 -265 -30 -358 -10 -338 70
-593 336 -647 676 -14 90 -13 153 5 255 55 315 309 582 619 650 95 20 260 18
360 -5z"/>
</g>
</svg>
