<?xml version="1.0" standalone="no"?>
<svg version="1.0" xmlns="http://www.w3.org/2000/svg"
 width="272.000000pt" height="258.000000pt" viewBox="0 0 272.000000 258.000000"
 preserveAspectRatio="xMidYMid meet">

<g transform="translate(0.000000,258.000000) scale(0.100000,-0.100000)"
fill="#000000" stroke="none">
<path d="M1185 2429 c-193 -28 -399 -119 -550 -242 -299 -244 -458 -640 -405
-1012 29 -203 117 -405 243 -560 224 -274 576 -432 922 -412 580 34 1028 482
1062 1062 11 190 -27 369 -117 550 -214 432 -686 682 -1155 614z m410 -128
c44 -12 122 -42 174 -67 222 -106 379 -263 485 -485 75 -155 90 -224 90 -429
0 -149 -3 -187 -22 -254 -98 -354 -374 -630 -728 -728 -67 -19 -105 -22 -254
-22 -149 0 -187 3 -254 22 -299 83 -548 296 -674 578 -62 139 -76 210 -76 404
0 149 3 187 22 254 105 378 407 662 788 741 103 21 345 14 449 -14z"/>
<path d="M781 1848 c-5 -13 -12 -51 -16 -84 l-7 -61 -64 -6 c-71 -7 -112 -23
-96 -39 13 -13 78 -27 124 -28 l36 0 7 -62 c8 -71 20 -108 34 -108 13 0 31 64
31 110 0 50 8 56 72 64 67 7 111 22 104 35 -7 11 -95 31 -135 31 -32 0 -41 14
-41 63 0 43 -19 107 -31 107 -5 0 -13 -10 -18 -22z"/>
<path d="M1223 1439 c-85 -42 -135 -136 -136 -254 -1 -102 31 -165 136 -269
94 -94 233 -216 300 -264 l46 -32 100 80 c164 132 303 271 339 338 78 147 34
329 -98 400 -39 21 -55 23 -125 20 -96 -5 -153 -31 -193 -87 l-26 -37 -21 30
c-59 88 -220 126 -322 75z"/>
</g>
</svg>
