<?xml version="1.0" standalone="no"?>
<svg version="1.0" xmlns="http://www.w3.org/2000/svg" width="246.000000pt" height="236.000000pt" viewBox="0 0 246.000000 236.000000"
    preserveAspectRatio="xMidYMid meet">

    <g transform="translate(0.000000,236.000000) scale(0.100000,-0.100000)" fill="#000000" stroke="none">
        <path d="M890 2244 c-347 -74 -613 -338 -685 -679 -19 -91 -19 -266 0 -360 65
-313 313 -577 625 -665 96 -27 265 -37 366 -21 144 24 282 83 397 169 l65 49
298 -298 c306 -307 327 -322 362 -287 35 35 20 56 -287 362 l-299 299 49 72
c96 141 146 286 156 450 25 433 -273 819 -703 910 -86 18 -258 18 -344 -1z
m347 -109 c262 -60 482 -266 565 -529 25 -79 35 -268 19 -362 -26 -148 -99
-283 -215 -400 -92 -91 -186 -151 -296 -188 -425 -141 -868 96 -992 531 -31
110 -31 286 0 396 74 260 261 455 513 537 129 41 269 46 406 15z" />
    </g>
</svg>
