<?xml version="1.0" standalone="no"?>
<svg version="1.0" xmlns="http://www.w3.org/2000/svg" width="252.000000" height="230.000000" viewBox="0 0 252.000000 230.000000"
    preserveAspectRatio="xMidYMid meet">

    <g transform="translate(0.000000,230.000000) scale(0.100000,-0.100000)" fill="#000000" stroke="none">
        <path d="M1263 2143 l-1013 -3 -16 -25 c-14 -22 -15 -28 -2 -47 9 -13 182
-185 387 -383 204 -198 373 -367 376 -375 2 -8 52 -260 111 -560 58 -300 111
-551 116 -557 6 -7 23 -13 39 -13 22 0 34 8 53 38 13 20 232 417 486 882 255
465 480 875 501 912 22 36 39 74 39 82 0 20 -36 57 -52 54 -7 -2 -469 -4
-1025 -5z m817 -107 c0 -6 -1016 -616 -1026 -616 -8 0 -31 22 -409 388 l-239
232 837 0 c460 0 837 -2 837 -4z m37 -138 c-13 -24 -203 -369 -422 -768 -218
-399 -400 -728 -404 -733 -4 -4 -28 102 -54 235 -26 134 -67 343 -91 466 l-43
223 516 309 c284 171 518 310 519 310 2 0 -7 -19 -21 -42z" />
    </g>
</svg>
