<?xml version="1.0" standalone="no"?>
<svg version="1.0" xmlns="http://www.w3.org/2000/svg" width="1016.000000" height="1002.000000" viewBox="0 0 1016.000000 1002.000000"
    preserveAspectRatio="xMidYMid meet">

    <g transform="translate(0.000000,1002.000000) scale(0.100000,-0.100000)" fill="#000000" stroke="none">
        <path d="M4915 9933 c-511 -41 -993 -308 -1248 -691 -87 -130 -174 -341 -198
-479 l-11 -63 -51 -15 c-28 -8 -56 -15 -62 -15 -26 0 -355 -103 -460 -144
-228 -90 -404 -196 -527 -320 -172 -172 -232 -379 -159 -540 49 -109 174 -222
331 -301 41 -21 100 -61 130 -89 161 -153 471 -263 989 -351 80 -14 148 -25
152 -25 5 0 13 -17 19 -38 18 -68 87 -76 126 -16 20 30 1 30 304 0 476 -46
1199 -40 1680 14 47 5 117 13 157 16 71 6 72 6 78 -19 8 -31 21 -42 58 -51 34
-8 77 30 77 68 0 27 -3 26 210 65 360 66 659 162 835 269 33 20 85 59 115 87
31 29 92 71 137 95 385 205 458 475 208 768 -42 48 -155 136 -258 201 -171
106 -506 236 -781 302 -112 27 -103 17 -135 155 -140 605 -728 1063 -1428
1114 -133 9 -202 10 -288 3z m461 -162 c550 -113 974 -470 1108 -934 29 -99
27 -118 -12 -111 -190 33 -277 45 -514 74 -309 37 -732 52 -1129 40 -466 -14
-647 -31 -1171 -107 -51 -8 -56 10 -28 105 64 224 214 446 405 602 224 182
484 298 780 345 131 21 427 13 561 -14z m-678 -1083 c-3 -7 -33 -27 -67 -44
-103 -52 -141 -99 -141 -174 0 -73 47 -132 135 -171 46 -20 64 -34 65 -50 0
-3 -73 -9 -162 -13 -89 -3 -204 -11 -257 -16 -53 -6 -139 -15 -191 -21 -52 -5
-115 -14 -140 -18 -25 -5 -79 -15 -120 -21 -204 -32 -483 -96 -633 -146 -94
-31 -113 -23 -69 27 87 100 96 214 22 277 -32 27 -97 52 -140 52 -55 0 -83 15
-60 30 26 17 279 97 412 129 332 82 828 149 1208 165 36 1 82 3 103 4 27 1 37
-2 35 -10z m1013 -3 c327 -25 631 -68 884 -125 172 -38 485 -130 505 -147 9
-8 -26 -23 -56 -23 -59 0 -131 -29 -163 -65 -65 -74 -53 -154 44 -281 19 -26
-6 -27 -82 -5 -367 106 -709 161 -1237 196 -219 14 -256 19 -256 34 0 5 19 16
43 25 84 32 156 116 157 184 0 66 -67 137 -174 183 -31 13 -56 27 -56 32 0 12
183 8 391 -8z m-476 -129 c72 -18 148 -50 165 -71 10 -12 10 -18 -1 -32 -18
-21 -98 -56 -169 -74 -73 -18 -344 -19 -425 -1 -78 18 -169 62 -173 84 -6 34
128 91 257 109 78 11 274 2 346 -15z m1970 -326 c164 -42 370 -171 420 -264
20 -37 20 -37 0 -53 -49 -37 -276 12 -415 90 -112 63 -230 173 -230 215 0 36
105 42 225 12z m-4157 -28 c7 -45 -114 -157 -240 -223 -185 -96 -408 -128
-408 -59 0 45 133 161 260 226 113 58 209 84 305 81 75 -2 80 -3 83 -25z
m2692 -116 c377 -32 602 -66 875 -132 488 -118 805 -305 805 -477 0 -42 -92
-131 -180 -174 -266 -129 -618 -215 -1195 -292 -100 -14 -195 -14 -195 -1 0 6
8 10 18 10 24 0 198 66 237 90 51 31 103 95 110 134 30 157 -183 266 -645 329
-233 32 -461 41 -710 27 -495 -27 -818 -113 -925 -245 -25 -30 -30 -46 -30
-88 0 -66 27 -106 103 -155 55 -35 200 -92 234 -92 10 0 18 -4 18 -10 0 -16
-106 -12 -284 10 -575 70 -1010 194 -1194 339 -87 69 -98 116 -51 206 153 291
912 498 1979 539 199 8 865 -4 1030 -18z m2068 -211 c28 -62 6 -129 -69 -209
-61 -66 -143 -126 -172 -126 -9 0 -20 15 -28 38 -13 42 -69 129 -99 157 -39
35 -26 41 85 37 112 -5 145 3 201 44 17 13 37 37 44 53 15 38 23 39 38 6z
m-5447 -111 c39 -20 194 -20 269 1 30 8 58 15 63 15 16 0 5 -25 -29 -66 -19
-24 -51 -78 -70 -119 -19 -41 -38 -75 -43 -75 -4 0 -35 17 -67 38 -92 59 -182
170 -168 206 8 20 8 20 45 0z m3154 -324 c284 -44 369 -64 475 -111 66 -30 90
-55 75 -79 -28 -45 -277 -118 -510 -149 -442 -60 -1043 -29 -1349 69 -163 53
-193 88 -113 134 114 66 379 123 707 150 89 8 647 -3 715 -14z" />
        <path d="M3752 6527 c-12 -13 -22 -33 -22 -46 0 -28 42 -71 70 -71 28 0 70 43
70 73 0 30 -39 67 -71 67 -14 0 -35 -10 -47 -23z" />
        <path d="M6270 6530 c-51 -51 6 -136 74 -110 70 26 50 130 -25 130 -16 0 -38
-9 -49 -20z" />
        <path d="M6362 6144 c-28 -19 -30 -74 -4 -97 25 -22 75 -21 95 1 25 27 22 78
-5 96 -12 9 -32 16 -43 16 -11 0 -31 -7 -43 -16z" />
        <path d="M3662 6138 c-7 -7 -12 -29 -12 -50 0 -29 6 -41 25 -54 61 -40 131 30
91 91 -13 19 -25 25 -54 25 -21 0 -43 -5 -50 -12z" />
        <path d="M3580 5750 c-39 -39 -12 -120 39 -120 32 0 71 39 71 71 0 36 -31 69
-65 69 -14 0 -34 -9 -45 -20z" />
        <path d="M6447 5752 c-25 -28 -22 -87 5 -106 48 -34 108 -4 108 54 0 58 -76
93 -113 52z" />
        <path d="M3496 5359 c-32 -25 -34 -66 -5 -98 38 -41 119 -7 119 50 0 30 -40
69 -70 69 -10 0 -29 -9 -44 -21z" />
        <path d="M6536 5359 c-52 -41 -24 -109 47 -109 63 0 87 60 42 105 -30 30 -54
31 -89 4z" />
        <path d="M3405 4965 c-14 -13 -25 -33 -25 -45 0 -28 43 -70 73 -70 31 0 67 35
67 66 0 30 -41 74 -70 74 -11 0 -32 -11 -45 -25z" />
        <path d="M6643 4980 c-29 -12 -46 -46 -38 -78 14 -56 79 -70 115 -25 43 56
-11 129 -77 103z" />
        <path d="M5730 4685 c-36 -9 -157 -33 -270 -56 -113 -22 -245 -49 -295 -59
-49 -11 -162 -33 -250 -50 -88 -17 -189 -37 -225 -45 -36 -8 -236 -48 -445
-90 -321 -64 -384 -80 -412 -101 -70 -54 -78 -116 -38 -309 29 -135 36 -173
59 -300 9 -49 21 -103 25 -120 5 -16 19 -82 30 -145 12 -63 26 -133 31 -155 5
-22 19 -89 31 -150 11 -60 27 -139 34 -175 8 -36 86 -425 174 -865 88 -440
171 -854 185 -920 13 -66 30 -151 36 -190 6 -38 18 -99 27 -135 9 -36 22 -103
29 -150 18 -116 50 -258 67 -300 9 -19 26 -45 40 -58 31 -30 105 -52 132 -41
19 8 1037 215 1210 245 44 8 96 19 115 24 19 5 127 27 240 49 356 70 370 74
413 103 64 45 71 112 31 307 -14 69 -34 171 -44 226 -11 55 -50 253 -89 440
-38 187 -77 378 -86 425 -9 47 -23 114 -30 150 -27 127 -437 2176 -451 2254
-32 174 -110 228 -274 191z m121 -152 c6 -16 15 -50 19 -78 5 -27 19 -95 30
-150 12 -55 25 -120 30 -145 4 -25 108 -542 230 -1150 122 -608 224 -1116 227
-1130 3 -14 12 -59 20 -100 9 -41 19 -93 23 -115 15 -77 41 -210 51 -252 15
-69 12 -92 -13 -98 -30 -6 -457 -90 -783 -154 -143 -28 -363 -72 -490 -97
-126 -25 -275 -54 -330 -64 -55 -11 -129 -26 -165 -34 -100 -22 -141 -23 -151
-6 -6 11 -423 2079 -562 2790 -2 14 -16 81 -30 150 -48 238 -51 260 -40 271 8
8 809 174 1258 261 149 29 385 77 535 108 120 25 129 25 141 -7z m683 -3405
c9 -29 27 -111 41 -182 21 -106 23 -132 13 -142 -7 -7 -431 -96 -943 -199
-511 -102 -937 -188 -946 -190 -36 -12 -49 18 -85 195 -30 150 -33 176 -21
185 15 10 141 37 747 155 168 33 350 68 405 80 250 51 735 146 762 149 7 0 19
-23 27 -51z" />
        <path d="M4920 4319 c-47 -11 -103 -23 -125 -26 -87 -13 -124 -58 -94 -112 19
-34 70 -38 176 -15 43 9 99 20 125 25 26 4 56 13 67 19 43 22 39 104 -5 120
-32 13 -41 12 -144 -11z" />
        <path d="M5865 3099 c-11 -5 -49 -53 -84 -105 -35 -53 -70 -98 -77 -101 -8 -3
-58 24 -111 59 -54 36 -106 68 -116 71 -24 9 -62 -10 -78 -40 -21 -38 4 -69
114 -143 61 -41 97 -72 97 -83 0 -10 -26 -57 -59 -105 -32 -48 -61 -97 -65
-108 -10 -31 10 -73 39 -84 44 -17 71 4 141 110 39 58 74 100 83 100 9 0 60
-29 115 -65 54 -36 109 -65 122 -65 31 0 64 37 64 71 0 32 -21 52 -133 124
-42 28 -79 56 -82 64 -3 7 24 59 60 115 36 57 65 113 65 125 0 24 -42 71 -62
70 -7 0 -22 -5 -33 -10z" />
        <path d="M4855 2899 c-11 -6 -48 -53 -83 -105 -34 -52 -69 -97 -77 -101 -9 -3
-61 25 -123 66 -111 74 -147 85 -175 54 -45 -51 -24 -87 99 -168 58 -38 108
-75 111 -81 2 -7 -23 -53 -57 -103 -33 -50 -65 -101 -69 -114 -12 -32 7 -76
35 -83 47 -12 68 4 140 108 51 74 76 102 89 100 10 -2 61 -32 114 -68 101 -67
122 -74 159 -48 23 16 30 66 14 92 -5 7 -53 43 -107 80 -54 37 -100 72 -102
77 -1 6 26 55 62 110 73 112 79 142 39 174 -29 23 -39 24 -69 10z" />
        <path d="M5695 2081 c-71 -15 -161 -33 -200 -40 -38 -7 -86 -17 -105 -22 -19
-4 -154 -31 -300 -60 -159 -31 -272 -57 -282 -67 -36 -31 -17 -97 33 -115 9
-3 81 8 160 23 79 16 286 56 459 90 440 85 442 86 463 111 40 49 6 110 -60
108 -21 -1 -96 -14 -168 -28z" />
        <path d="M5585 872 c-59 -12 -77 -93 -29 -131 35 -28 69 -26 99 4 58 57 10
143 -70 127z" />
        <path d="M3332 4590 c-53 -22 -46 -104 11 -124 22 -8 32 -6 55 11 39 29 42 74
6 102 -29 23 -38 24 -72 11z" />
        <path d="M6730 4593 c-39 -15 -52 -72 -25 -107 18 -24 78 -27 99 -5 29 29 30
66 2 93 -24 25 -46 30 -76 19z" />
        <path d="M3232 4194 c-16 -11 -22 -25 -22 -54 0 -43 26 -70 67 -70 56 0 84 80
41 120 -26 24 -56 26 -86 4z" />
        <path d="M6807 4199 c-45 -26 -39 -96 10 -118 34 -16 50 -14 73 9 57 57 -13
149 -83 109z" />
        <path d="M3145 3795 c-62 -61 11 -150 83 -99 16 11 22 25 22 54 0 66 -59 92
-105 45z" />
        <path d="M6889 3802 c-26 -22 -31 -75 -8 -97 29 -28 66 -29 93 -1 33 32 33 60
1 91 -29 30 -55 32 -86 7z" />
        <path d="M3052 3407 c-28 -30 -28 -68 1 -95 30 -29 62 -28 92 3 31 30 32 65 2
93 -30 28 -68 28 -95 -1z" />
        <path d="M6976 3409 c-17 -13 -26 -30 -26 -49 0 -32 39 -70 72 -70 25 0 68 44
68 70 0 26 -43 70 -68 70 -11 0 -31 -9 -46 -21z" />
        <path d="M2996 3032 c-33 -7 -47 -30 -44 -69 4 -48 41 -73 85 -57 76 26 38
143 -41 126z" />
        <path d="M7077 3028 c-49 -18 -49 -100 1 -119 69 -27 123 43 79 102 -17 22
-47 29 -80 17z" />
        <path d="M2895 2638 c-27 -15 -35 -28 -35 -60 0 -57 76 -91 113 -50 17 19 22
68 9 88 -8 12 -46 34 -59 34 -4 0 -17 -6 -28 -12z" />
        <path d="M7158 2634 c-23 -12 -28 -21 -28 -54 0 -64 62 -92 108 -50 22 20 29
64 14 86 -8 12 -46 34 -59 34 -4 -1 -20 -8 -35 -16z" />
        <path d="M2820 2253 c-51 -18 -66 -77 -30 -113 42 -42 113 -11 113 49 0 46
-42 78 -83 64z" />
        <path d="M7250 2247 c-35 -18 -48 -59 -27 -90 23 -35 64 -43 96 -19 36 26 39
65 7 97 -28 28 -40 30 -76 12z" />
        <path d="M2721 1857 c-14 -6 -29 -25 -34 -41 -21 -62 62 -111 111 -66 29 27
28 65 -3 95 -27 28 -39 30 -74 12z" />
        <path d="M7350 1863 c-30 -11 -50 -37 -50 -64 0 -57 77 -91 113 -51 17 19 22
68 9 88 -7 10 -47 35 -54 33 -2 0 -10 -3 -18 -6z" />
        <path d="M2615 1460 c-26 -29 -24 -79 4 -102 47 -38 111 -8 111 52 0 61 -76
93 -115 50z" />
        <path d="M7406 1451 c-41 -45 13 -126 71 -105 15 5 34 22 43 37 13 24 13 30 0
55 -20 36 -86 44 -114 13z" />
        <path d="M2542 1078 c-43 -21 -43 -93 0 -117 20 -12 34 -13 55 -5 52 18 57
100 8 122 -30 14 -33 14 -63 0z" />
        <path d="M7514 1078 c-47 -22 -50 -93 -5 -117 51 -28 101 0 101 56 0 48 -53
82 -96 61z" />
        <path d="M7610 693 c-50 -18 -68 -84 -32 -116 25 -23 85 -22 105 1 48 53 -7
139 -73 115z" />
        <path d="M2436 668 c-22 -31 -20 -64 4 -88 43 -43 110 -13 110 49 0 47 -14 61
-61 61 -28 0 -42 -6 -53 -22z" />
        <path d="M7700 303 c-51 -19 -66 -77 -29 -114 28 -28 76 -22 102 13 17 23 18
31 8 56 -10 23 -51 56 -64 51 -1 0 -9 -3 -17 -6z" />
        <path d="M2350 278 c-23 -25 -25 -40 -9 -71 16 -29 28 -37 62 -37 34 0 67 32
67 65 0 58 -79 87 -120 43z" />
    </g>
</svg>
